<svg width="106" height="90" viewBox="0 0 106 90" fill="none" xmlns="http://www.w3.org/2000/svg">
<g filter="url(#filter0_d_128_540)">
<path d="M34.6289 20.2022C34.9649 19.8252 35.3821 19.5225 35.8516 19.315C36.3211 19.1074 36.8319 19 37.3488 19H67.9115C68.4284 19 68.9392 19.1074 69.4087 19.315C69.8783 19.5225 70.2954 19.8252 70.6314 20.2022L79.9684 30.6583C80.802 31.592 81.2603 32.7812 81.2603 34.0108V34.8868C81.2605 36.587 80.7072 38.2448 79.6778 39.6285C78.6484 41.0122 77.1943 42.0526 75.5188 42.6043C73.8432 43.156 72.03 43.1915 70.3324 42.7057C68.6348 42.2199 67.1378 41.2372 66.0505 39.895C65.2566 40.8766 64.2391 41.6708 63.076 42.2167C61.9129 42.7627 60.6351 43.046 59.3403 43.0448C58.0456 43.0462 56.7677 42.7631 55.6045 42.2171C54.4414 41.6711 53.424 40.8768 52.6302 39.895C51.8364 40.8768 50.8189 41.6711 49.6558 42.2171C48.4927 42.7631 47.2147 43.0462 45.92 43.0448C44.6252 43.0462 43.3473 42.7631 42.1841 42.2171C41.021 41.6711 40.0036 40.8768 39.2098 39.895C38.1225 41.2372 36.6255 42.2199 34.9279 42.7057C33.2303 43.1915 31.4171 43.156 29.7415 42.6043C28.066 42.0526 26.6119 41.0122 25.5825 39.6285C24.5531 38.2448 23.9998 36.587 24 34.8868V34.0108C24 32.7812 24.4583 31.592 25.2919 30.6583L34.6325 20.1988L34.6289 20.2022ZM40.9992 34.8868C40.9992 36.1394 41.5176 37.3407 42.4404 38.2265C43.3633 39.1122 44.6149 39.6099 45.92 39.6099C47.225 39.6099 48.4767 39.1122 49.3995 38.2265C50.3223 37.3407 50.8408 36.1394 50.8408 34.8868C50.8408 34.4313 51.0293 33.9944 51.3649 33.6723C51.7004 33.3502 52.1556 33.1693 52.6302 33.1693C53.1047 33.1693 53.5599 33.3502 53.8954 33.6723C54.231 33.9944 54.4195 34.4313 54.4195 34.8868C54.4195 36.1394 54.938 37.3407 55.8608 38.2265C56.7836 39.1122 58.0353 39.6099 59.3403 39.6099C60.6454 39.6099 61.897 39.1122 62.8199 38.2265C63.7427 37.3407 64.2612 36.1394 64.2612 34.8868C64.2612 34.4313 64.4497 33.9944 64.7852 33.6723C65.1208 33.3502 65.576 33.1693 66.0505 33.1693C66.5251 33.1693 66.9802 33.3502 67.3158 33.6723C67.6514 33.9944 67.8399 34.4313 67.8399 34.8868C67.8399 36.1394 68.3584 37.3407 69.2812 38.2265C70.204 39.1122 71.4556 39.6099 72.7607 39.6099C74.0658 39.6099 75.3174 39.1122 76.2403 38.2265C77.1631 37.3407 77.6815 36.1394 77.6815 34.8868V34.0108C77.6816 33.6015 77.5293 33.2056 77.2521 32.8945L67.9115 22.435H37.3488L28.0082 32.8945C27.731 33.2056 27.5787 33.6015 27.5788 34.0108V34.8868C27.5788 36.1394 28.0972 37.3407 29.02 38.2265C29.9429 39.1122 31.1945 39.6099 32.4996 39.6099C33.8047 39.6099 35.0563 39.1122 35.9791 38.2265C36.9019 37.3407 37.4204 36.1394 37.4204 34.8868C37.4204 34.4313 37.6089 33.9944 37.9445 33.6723C38.2801 33.3502 38.7352 33.1693 39.2098 33.1693C39.6843 33.1693 40.1395 33.3502 40.4751 33.6723C40.8106 33.9944 40.9992 34.4313 40.9992 34.8868V34.8868ZM29.3682 44.7623C29.8427 44.7623 30.2979 44.9433 30.6334 45.2654C30.969 45.5875 31.1575 46.0243 31.1575 46.4798V67.0897H34.7363V49.9148C34.7363 49.0038 35.1134 48.1301 35.7845 47.4859C36.4557 46.8417 37.3659 46.4798 38.3151 46.4798H49.0514C50.0005 46.4798 50.9108 46.8417 51.582 47.4859C52.2531 48.1301 52.6302 49.0038 52.6302 49.9148V67.0897H74.1028V46.4798C74.1028 46.0243 74.2913 45.5875 74.6269 45.2654C74.9624 44.9433 75.4176 44.7623 75.8922 44.7623C76.3667 44.7623 76.8219 44.9433 77.1574 45.2654C77.493 45.5875 77.6815 46.0243 77.6815 46.4798V67.0897H79.4709C79.9455 67.0897 80.4006 67.2706 80.7362 67.5927C81.0718 67.9148 81.2603 68.3516 81.2603 68.8072C81.2603 69.2627 81.0718 69.6995 80.7362 70.0216C80.4006 70.3437 79.9455 70.5246 79.4709 70.5246H25.7894C25.3148 70.5246 24.8597 70.3437 24.5241 70.0216C24.1885 69.6995 24 69.2627 24 68.8072C24 68.3516 24.1885 67.9148 24.5241 67.5927C24.8597 67.2706 25.3148 67.0897 25.7894 67.0897H27.5788V46.4798C27.5788 46.0243 27.7673 45.5875 28.1029 45.2654C28.4384 44.9433 28.8936 44.7623 29.3682 44.7623V44.7623ZM38.3151 67.0897H49.0514V49.9148H38.3151V67.0897ZM56.2089 49.9148C56.2089 49.0038 56.586 48.1301 57.2571 47.4859C57.9283 46.8417 58.8385 46.4798 59.7877 46.4798H66.9452C67.8944 46.4798 68.8046 46.8417 69.4758 47.4859C70.1469 48.1301 70.524 49.0038 70.524 49.9148V60.2197C70.524 61.1307 70.1469 62.0044 69.4758 62.6486C68.8046 63.2928 67.8944 63.6547 66.9452 63.6547H59.7877C58.8385 63.6547 57.9283 63.2928 57.2571 62.6486C56.586 62.0044 56.2089 61.1307 56.2089 60.2197V49.9148ZM66.9452 49.9148H59.7877V60.2197H66.9452V49.9148Z" fill="white"/>
</g>
<defs>
<filter id="filter0_d_128_540" x="20" y="19" width="65.2603" height="59.5247" filterUnits="userSpaceOnUse" color-interpolation-filters="sRGB">
<feFlood flood-opacity="0" result="BackgroundImageFix"/>
<feColorMatrix in="SourceAlpha" type="matrix" values="0 0 0 0 0 0 0 0 0 0 0 0 0 0 0 0 0 0 127 0" result="hardAlpha"/>
<feOffset dy="4"/>
<feGaussianBlur stdDeviation="2"/>
<feComposite in2="hardAlpha" operator="out"/>
<feColorMatrix type="matrix" values="0 0 0 0 0 0 0 0 0 0 0 0 0 0 0 0 0 0 0.25 0"/>
<feBlend mode="normal" in2="BackgroundImageFix" result="effect1_dropShadow_128_540"/>
<feBlend mode="normal" in="SourceGraphic" in2="effect1_dropShadow_128_540" result="shape"/>
</filter>
</defs>
</svg>
