<svg width="106" height="90" viewBox="0 0 106 90" fill="none" xmlns="http://www.w3.org/2000/svg">
<g filter="url(#filter0_d_128_541)">
<path d="M80.3935 35.8505L53.4023 19.1423C53.0961 18.9525 52.6939 18.9526 52.3875 19.1423L25.3964 35.8505C25.1485 36.004 25 36.2594 25 36.5327V70.8286C25 71.2839 25.4046 71.6531 25.9038 71.6531H79.8861C80.3852 71.6531 80.7898 71.284 80.7898 70.8286V36.5327C80.7898 36.2594 80.6415 36.004 80.3935 35.8505ZM46.2073 70.0042H36.4472V61.1005H38.4956V65.5523C38.4956 66.0076 38.9002 66.3768 39.3993 66.3768H43.2553C43.7543 66.3768 44.159 66.0077 44.159 65.5523V61.1005H46.2074V70.0042H46.2073ZM34.5193 40.1052V38.2366H71.2707V40.1052H34.5193ZM40.3031 64.7279V61.1005H42.3515V64.7279H40.3031ZM46.2073 59.4516H43.2551H39.3992H36.447V50.5479H38.4955V54.9997C38.4955 55.455 38.9001 55.8242 39.3992 55.8242H43.2551C43.7542 55.8242 44.1589 55.4551 44.1589 54.9997V50.5479H46.2073V59.4516ZM40.3031 54.1753V50.5479H42.3515V54.1753H40.3031ZM57.775 70.0042H48.0148V61.1005H50.0632V65.5523C50.0632 66.0076 50.4678 66.3768 50.967 66.3768H54.8229C55.3221 66.3768 55.7267 66.0077 55.7267 65.5523V61.1005H57.7751V70.0042H57.775ZM51.8706 64.7279V61.1005H53.9191V64.7279H51.8706ZM78.9824 70.0042H71.1502V52.3615C71.1502 51.9063 70.7457 51.5371 70.2464 51.5371C69.7472 51.5371 69.3427 51.9062 69.3427 52.3615V70.0041H59.5825V60.276C59.5825 59.8208 59.178 59.4516 58.6787 59.4516H48.0148V49.7234C48.0148 49.2682 47.6102 48.899 47.1111 48.899H36.4472V41.754H69.3427V48.8441C69.3427 49.2993 69.7471 49.6685 70.2464 49.6685C70.7456 49.6685 71.1502 49.2994 71.1502 48.8441V41.754H72.1744C72.6736 41.754 73.0782 41.3849 73.0782 40.9296V37.4121C73.0782 36.9568 72.6737 36.5877 72.1744 36.5877H33.6155C33.1164 36.5877 32.7117 36.9567 32.7117 37.4121V40.9297C32.7117 41.3849 33.1163 41.7541 33.6155 41.7541H34.6398V70.0043H26.8075V36.9696L52.8949 20.8208L78.9823 36.9696V70.0042H78.9824Z" fill="white"/>
<path d="M56.7507 26.035H49.039C48.54 26.035 48.1353 26.4041 48.1353 26.8595C48.1353 27.3149 48.5398 27.6839 49.039 27.6839H56.7507C57.2499 27.6839 57.6545 27.3149 57.6545 26.8595C57.6545 26.4041 57.2499 26.035 56.7507 26.035Z" fill="white"/>
<path d="M56.7507 29.5523H49.039C48.54 29.5523 48.1353 29.9214 48.1353 30.3768C48.1353 30.8321 48.5398 31.2012 49.039 31.2012H56.7507C57.2499 31.2012 57.6545 30.8321 57.6545 30.3768C57.6545 29.9214 57.2499 29.5523 56.7507 29.5523Z" fill="white"/>
<path d="M56.7507 33.0698H49.039C48.54 33.0698 48.1353 33.4388 48.1353 33.8942C48.1353 34.3496 48.5398 34.7187 49.039 34.7187H56.7507C57.2499 34.7187 57.6545 34.3496 57.6545 33.8942C57.6545 33.4388 57.2499 33.0698 56.7507 33.0698Z" fill="white"/>
<path d="M43.2552 56.8134H39.3992C38.9002 56.8134 38.4955 57.1824 38.4955 57.6378C38.4955 58.0931 38.9001 58.4623 39.3992 58.4623H43.2552C43.7542 58.4623 44.1589 58.0932 44.1589 57.6378C44.1588 57.1824 43.7542 56.8134 43.2552 56.8134Z" fill="white"/>
<path d="M43.2552 67.3658H39.3992C38.9002 67.3658 38.4955 67.7349 38.4955 68.1903C38.4955 68.6456 38.9001 69.0147 39.3992 69.0147H43.2552C43.7542 69.0147 44.1589 68.6457 44.1589 68.1903C44.1588 67.735 43.7542 67.3658 43.2552 67.3658Z" fill="white"/>
<path d="M54.8229 67.3658H50.9669C50.4679 67.3658 50.0632 67.7349 50.0632 68.1903C50.0632 68.6456 50.4678 69.0147 50.9669 69.0147H54.8229C55.322 69.0147 55.7266 68.6457 55.7266 68.1903C55.7266 67.735 55.3221 67.3658 54.8229 67.3658Z" fill="white"/>
</g>
<defs>
<filter id="filter0_d_128_541" x="21" y="19" width="63.7898" height="60.6531" filterUnits="userSpaceOnUse" color-interpolation-filters="sRGB">
<feFlood flood-opacity="0" result="BackgroundImageFix"/>
<feColorMatrix in="SourceAlpha" type="matrix" values="0 0 0 0 0 0 0 0 0 0 0 0 0 0 0 0 0 0 127 0" result="hardAlpha"/>
<feOffset dy="4"/>
<feGaussianBlur stdDeviation="2"/>
<feComposite in2="hardAlpha" operator="out"/>
<feColorMatrix type="matrix" values="0 0 0 0 0 0 0 0 0 0 0 0 0 0 0 0 0 0 0.25 0"/>
<feBlend mode="normal" in2="BackgroundImageFix" result="effect1_dropShadow_128_541"/>
<feBlend mode="normal" in="SourceGraphic" in2="effect1_dropShadow_128_541" result="shape"/>
</filter>
</defs>
</svg>
