<svg width="106" height="90" viewBox="0 0 106 90" fill="none" xmlns="http://www.w3.org/2000/svg">
<g filter="url(#filter0_d_128_539)">
<path d="M75.6173 31.1507C76.9386 31.1507 78.0135 30.0457 78.0135 28.6878V21.463C78.0135 20.1049 76.9385 19 75.6173 19H54.9563C53.635 19 52.56 20.105 52.56 21.463V28.6878C52.56 30.0458 53.6351 31.1507 54.9563 31.1507H64.488V34.7631H49.3651V21.463C49.3651 20.1049 48.29 19 46.9688 19H36.5318C35.2106 19 34.1356 20.105 34.1356 21.463V34.7631H30.9938C28.7915 34.7631 27 36.6045 27 38.8681V62.9506C27 63.4041 27.3575 63.7716 27.7987 63.7716C28.2399 63.7716 28.5974 63.4041 28.5974 62.9506V60.9255H60.6007C61.0419 60.9255 61.3994 60.5581 61.3994 60.1046C61.3994 59.6511 61.0419 59.2836 60.6007 59.2836H28.5975V38.8682C28.5975 37.5101 29.6726 36.4052 30.9938 36.4052H34.1355V43.9584H31.8458C31.4046 43.9584 31.0471 44.3258 31.0471 44.7793C31.0471 45.2329 31.4046 45.6003 31.8458 45.6003H51.6549C52.0961 45.6003 52.4536 45.2329 52.4536 44.7793C52.4536 44.3258 52.0961 43.9584 51.6549 43.9584H49.3651V36.4052H74.0199C75.3411 36.4052 76.4161 37.5102 76.4161 38.8682V59.2836H64.8608C64.4196 59.2836 64.0621 59.6511 64.0621 60.1046C64.0621 60.5581 64.4196 60.9255 64.8608 60.9255H76.4161V69.1902C76.4161 69.643 76.0578 70.0112 75.6174 70.0112H29.3963C28.9558 70.0112 28.5976 69.6429 28.5976 69.1902V66.6725C28.5976 66.219 28.2401 65.8516 27.7989 65.8516C27.3577 65.8516 27.0002 66.219 27.0002 66.6725V69.1902C27.0002 70.5483 28.0753 71.6532 29.3964 71.6532H75.6175C76.9388 71.6532 78.0137 70.5482 78.0137 69.1902V38.8681C78.0137 36.6045 76.2222 34.7631 74.02 34.7631H66.0857V31.1507H75.6173ZM47.7676 43.9582H35.733V21.463C35.733 21.0102 36.0913 20.642 36.5317 20.642H46.9687C47.4093 20.642 47.7675 21.0103 47.7675 21.463V43.9582H47.7676ZM54.9563 29.5087C54.5158 29.5087 54.1576 29.1404 54.1576 28.6878V21.463C54.1576 21.0102 54.5159 20.642 54.9563 20.642H75.6173C76.0578 20.642 76.416 21.0103 76.416 21.463V28.6878C76.416 29.1406 76.0577 29.5087 75.6173 29.5087H54.9563V29.5087Z" fill="white"/>
<path d="M74.659 22.2837H55.915C55.4738 22.2837 55.1163 22.6511 55.1163 23.1046V27.0454C55.1163 27.4989 55.4738 27.8664 55.915 27.8664H74.659C75.1002 27.8664 75.4577 27.4989 75.4577 27.0454V23.1046C75.4578 22.6512 75.1002 22.2837 74.659 22.2837ZM73.8603 26.2245H56.7138V23.9257H73.8603V26.2245Z" fill="white"/>
<path d="M52.507 62.1293C50.7746 62.1293 49.3652 63.5778 49.3652 65.3585C49.3652 67.1391 50.7746 68.5877 52.507 68.5877C54.2394 68.5877 55.6487 67.1391 55.6487 65.3585C55.6487 63.5778 54.2394 62.1293 52.507 62.1293ZM52.507 66.9458C51.6555 66.9458 50.9627 66.2337 50.9627 65.3585C50.9627 64.4832 51.6555 63.7713 52.507 63.7713C53.3584 63.7713 54.0513 64.4833 54.0513 65.3586C54.0513 66.2338 53.3584 66.9458 52.507 66.9458Z" fill="white"/>
<path d="M67.8428 53.1531H64.4348C63.9936 53.1531 63.6361 53.5205 63.6361 53.974V57.4769C63.6361 57.9304 63.9936 58.2979 64.4348 58.2979H67.8428C68.284 58.2979 68.6415 57.9304 68.6415 57.4769V53.974C68.6415 53.5205 68.284 53.1531 67.8428 53.1531ZM67.044 56.6559H65.2334V54.795H67.044V56.6559Z" fill="white"/>
<path d="M74.6587 53.1531H71.2507C70.8095 53.1531 70.452 53.5205 70.452 53.974V57.4769C70.452 57.9304 70.8095 58.2979 71.2507 58.2979H74.6587C75.0999 58.2979 75.4574 57.9304 75.4574 57.4769V53.974C75.4575 53.5205 75.0999 53.1531 74.6587 53.1531ZM73.86 56.6559H72.0495V54.795H73.86V56.6559Z" fill="white"/>
<path d="M61.0269 47.0231H57.6189C57.1777 47.0231 56.8202 47.3905 56.8202 47.844V51.3469C56.8202 51.8004 57.1777 52.1679 57.6189 52.1679H61.0269C61.4681 52.1679 61.8256 51.8004 61.8256 51.3469V47.844C61.8256 47.3905 61.4681 47.0231 61.0269 47.0231ZM60.2282 50.5259H58.4176V48.665H60.2282V50.5259Z" fill="white"/>
<path d="M67.8428 47.0231H64.4348C63.9936 47.0231 63.6361 47.3905 63.6361 47.844V51.3469C63.6361 51.8004 63.9936 52.1679 64.4348 52.1679H67.8428C68.284 52.1679 68.6415 51.8004 68.6415 51.3469V47.844C68.6415 47.3905 68.284 47.0231 67.8428 47.0231ZM67.044 50.5259H65.2334V48.665H67.044V50.5259Z" fill="white"/>
<path d="M61.0269 53.1531H43.9868C43.5456 53.1531 43.1881 53.5205 43.1881 53.974V57.4769C43.1881 57.9304 43.5456 58.2979 43.9868 58.2979H61.0269C61.4681 58.2979 61.8256 57.9304 61.8256 57.4769V53.974C61.8256 53.5205 61.4681 53.1531 61.0269 53.1531ZM60.2281 56.6559H44.7855V54.795H60.228V56.6559H60.2281Z" fill="white"/>
<path d="M47.3948 47.0231H43.9868C43.5456 47.0231 43.1881 47.3905 43.1881 47.844V51.3469C43.1881 51.8004 43.5456 52.1679 43.9868 52.1679H47.3948C47.836 52.1679 48.1935 51.8004 48.1935 51.3469V47.844C48.1936 47.3905 47.836 47.0231 47.3948 47.0231ZM46.5961 50.5259H44.7855V48.665H46.5961V50.5259Z" fill="white"/>
<path d="M54.2107 47.0231H50.8027C50.3615 47.0231 50.004 47.3905 50.004 47.844V51.3469C50.004 51.8004 50.3615 52.1679 50.8027 52.1679H54.2107C54.6519 52.1679 55.0094 51.8004 55.0094 51.3469V47.844C55.0095 47.3905 54.6519 47.0231 54.2107 47.0231ZM53.412 50.5259H51.6015V48.665H53.412V50.5259Z" fill="white"/>
<path d="M33.763 53.1531H30.355C29.9138 53.1531 29.5563 53.5205 29.5563 53.974V57.4769C29.5563 57.9304 29.9138 58.2979 30.355 58.2979H33.763C34.2042 58.2979 34.5617 57.9304 34.5617 57.4769V53.974C34.5617 53.5205 34.2042 53.1531 33.763 53.1531ZM32.9642 56.6559H31.1537V54.795H32.9642V56.6559V56.6559Z" fill="white"/>
<path d="M40.5789 53.1531H37.1709C36.7297 53.1531 36.3722 53.5205 36.3722 53.974V57.4769C36.3722 57.9304 36.7297 58.2979 37.1709 58.2979H40.5789C41.0201 58.2979 41.3776 57.9304 41.3776 57.4769V53.974C41.3776 53.5205 41.0201 53.1531 40.5789 53.1531ZM39.7801 56.6559H37.9695V54.795H39.7801V56.6559Z" fill="white"/>
<path d="M33.763 47.0231H30.355C29.9138 47.0231 29.5563 47.3905 29.5563 47.844V51.3469C29.5563 51.8004 29.9138 52.1679 30.355 52.1679H33.763C34.2042 52.1679 34.5617 51.8004 34.5617 51.3469V47.844C34.5617 47.3905 34.2042 47.0231 33.763 47.0231ZM32.9642 50.5259H31.1537V48.665H32.9642V50.5259V50.5259Z" fill="white"/>
<path d="M40.5789 47.0231H37.1709C36.7297 47.0231 36.3722 47.3905 36.3722 47.844V51.3469C36.3722 51.8004 36.7297 52.1679 37.1709 52.1679H40.5789C41.0201 52.1679 41.3776 51.8004 41.3776 51.3469V47.844C41.3776 47.3905 41.0201 47.0231 40.5789 47.0231ZM39.7801 50.5259H37.9695V48.665H39.7801V50.5259Z" fill="white"/>
<path d="M74.6587 47.0231H71.2507C70.8095 47.0231 70.452 47.3905 70.452 47.844V51.3469C70.452 51.8004 70.8095 52.1679 71.2507 52.1679H74.6587C75.0999 52.1679 75.4574 51.8004 75.4574 51.3469V47.844C75.4575 47.3905 75.0999 47.0231 74.6587 47.0231ZM73.86 50.5259H72.0495V48.665H73.86V50.5259Z" fill="white"/>
<path d="M73.0613 37.828H59.2162C57.8949 37.828 56.8199 38.933 56.8199 40.291V43.1371C56.8199 44.4952 57.895 45.6001 59.2162 45.6001H73.0612C74.3824 45.6001 75.4574 44.4951 75.4574 43.1371V40.291C75.4575 38.933 74.3824 37.828 73.0613 37.828ZM73.86 43.1371C73.86 43.5899 73.5017 43.9581 73.0613 43.9581H59.2162C58.7757 43.9581 58.4175 43.5898 58.4175 43.1371V40.291C58.4175 39.8382 58.7758 39.47 59.2162 39.47H73.0612C73.5017 39.47 73.8599 39.8383 73.8599 40.291V43.1371H73.86Z" fill="white"/>
<path d="M44.8388 36.9525H39.0878C38.6465 36.9525 38.2891 37.32 38.2891 37.7735C38.2891 38.227 38.6465 38.5944 39.0878 38.5944H44.8388C45.28 38.5944 45.6375 38.227 45.6375 37.7735C45.6375 37.32 45.28 36.9525 44.8388 36.9525Z" fill="white"/>
<path d="M44.8388 40.4552H39.0878C38.6465 40.4552 38.2891 40.8226 38.2891 41.2762C38.2891 41.7297 38.6465 42.0971 39.0878 42.0971H44.8388C45.28 42.0971 45.6375 41.7297 45.6375 41.2762C45.6375 40.8226 45.28 40.4552 44.8388 40.4552Z" fill="white"/>
<path d="M44.8388 25.6773C45.2801 25.6773 45.6376 25.3098 45.6376 24.8563C45.6376 24.4028 45.2801 24.0354 44.8388 24.0354H42.6556V23.1049C42.6556 22.6514 42.2981 22.2839 41.8569 22.2839C41.4157 22.2839 41.0582 22.6514 41.0582 23.1049V24.0354H40.3659C39.3383 24.0354 38.5022 24.8948 38.5022 25.951V27.7025C38.5022 28.7587 39.3383 29.6181 40.3659 29.6181H41.0582V31.9169H38.8749C38.4337 31.9169 38.0762 32.2843 38.0762 32.7378C38.0762 33.1913 38.4337 33.5588 38.8749 33.5588H41.0582V34.4893C41.0582 34.9428 41.4157 35.3102 41.8569 35.3102C42.2981 35.3102 42.6556 34.9428 42.6556 34.4893V33.5588H43.3479C44.3755 33.5588 45.2116 32.6994 45.2116 31.6431V29.8917C45.2116 28.8354 44.3755 27.976 43.3479 27.976H42.6556V25.6773H44.8388ZM41.0581 27.9761H40.3658C40.2189 27.9761 40.0996 27.8534 40.0996 27.7025V25.951C40.0996 25.8001 40.2189 25.6774 40.3658 25.6774H41.0581V27.9761ZM43.3478 29.6181C43.4946 29.6181 43.614 29.7408 43.614 29.8918V31.6432C43.614 31.7942 43.4946 31.9169 43.3478 31.9169H42.6555V29.6181H43.3478V29.6181Z" fill="white"/>
</g>
<defs>
<filter id="filter0_d_128_539" x="23" y="19" width="59.0137" height="60.6532" filterUnits="userSpaceOnUse" color-interpolation-filters="sRGB">
<feFlood flood-opacity="0" result="BackgroundImageFix"/>
<feColorMatrix in="SourceAlpha" type="matrix" values="0 0 0 0 0 0 0 0 0 0 0 0 0 0 0 0 0 0 127 0" result="hardAlpha"/>
<feOffset dy="4"/>
<feGaussianBlur stdDeviation="2"/>
<feComposite in2="hardAlpha" operator="out"/>
<feColorMatrix type="matrix" values="0 0 0 0 0 0 0 0 0 0 0 0 0 0 0 0 0 0 0.25 0"/>
<feBlend mode="normal" in2="BackgroundImageFix" result="effect1_dropShadow_128_539"/>
<feBlend mode="normal" in="SourceGraphic" in2="effect1_dropShadow_128_539" result="shape"/>
</filter>
</defs>
</svg>
