<svg width="30" height="30" viewBox="0 0 30 30" fill="none" xmlns="http://www.w3.org/2000/svg">
<path d="M19.6658 17.5C19.474 17.5 19.29 17.579 19.1544 17.7197C19.0188 17.8603 18.9426 18.0511 18.9426 18.25C18.9426 18.4489 19.0188 18.6397 19.1544 18.7803C19.29 18.921 19.474 19 19.6658 19H23.0408C23.2326 19 23.4165 18.921 23.5522 18.7803C23.6878 18.6397 23.764 18.4489 23.764 18.25C23.764 18.0511 23.6878 17.8603 23.5522 17.7197C23.4165 17.579 23.2326 17.5 23.0408 17.5H19.6658ZM4 9.75C4 8.75544 4.38098 7.80161 5.05912 7.09835C5.73727 6.39509 6.65703 6 7.61607 6H23.5229C24.482 6 25.4017 6.39509 26.0799 7.09835C26.758 7.80161 27.139 8.75544 27.139 9.75V20.25C27.139 21.2446 26.758 22.1984 26.0799 22.9017C25.4017 23.6049 24.482 24 23.5229 24H7.61704C6.65799 24 5.73823 23.6049 5.06009 22.9017C4.38194 22.1984 4.00096 21.2446 4.00096 20.25V9.75H4ZM7.61607 7.5C7.04065 7.5 6.48879 7.73705 6.0819 8.15901C5.67502 8.58097 5.44643 9.15326 5.44643 9.75V10.5H25.6926V9.75C25.6926 9.15326 25.464 8.58097 25.0571 8.15901C24.6502 7.73705 24.0984 7.5 23.5229 7.5H7.61704H7.61607ZM5.44643 20.25C5.44643 20.8467 5.67502 21.419 6.0819 21.841C6.48879 22.2629 7.04065 22.5 7.61607 22.5H23.5229C24.0984 22.5 24.6502 22.2629 25.0571 21.841C25.464 21.419 25.6926 20.8467 25.6926 20.25V12H5.44739V20.25H5.44643Z" fill="white"/>
</svg>
