<svg width="29" height="26" viewBox="0 0 29 26" fill="none" xmlns="http://www.w3.org/2000/svg">
<path d="M26.7183 7.0071L17.6558 2.53836C17.5219 2.47235 17.3717 2.43774 17.219 2.43774C17.0662 2.43774 16.916 2.47235 16.7821 2.53836L7.71964 7.0071C7.57756 7.07724 7.45907 7.18029 7.37654 7.30548C7.29402 7.43068 7.25049 7.57343 7.25049 7.71886C7.25049 7.86428 7.29402 8.00703 7.37654 8.13223C7.45907 8.25742 7.57756 8.36047 7.71964 8.43061L16.3127 12.6678V21.377L13.5613 20.0201L12.6877 21.4428L16.7821 23.4619C16.9159 23.528 17.0662 23.5627 17.219 23.5627C17.3717 23.5627 17.522 23.528 17.6558 23.4619L26.7183 18.9931C26.8604 18.923 26.979 18.82 27.0615 18.6948C27.1441 18.5696 27.1877 18.4268 27.1877 18.2814V7.71886C27.1877 7.57341 27.1441 7.43063 27.0615 7.30544C26.979 7.18024 26.8604 7.07721 26.7183 7.0071ZM17.219 4.17798L24.401 7.71886L17.219 11.2597L10.0369 7.71886L17.219 4.17798ZM25.3752 17.8012L18.1252 21.3762V12.667L25.3752 9.09198V17.8012Z" fill="white"/>
<path d="M9.0625 13H1.8125V11.375H9.0625V13ZM10.875 19.5H3.625V17.875H10.875V19.5ZM12.6875 16.25H5.4375V14.625H12.6875V16.25Z" fill="white"/>
</svg>
